<mxfile host="app.diagrams.net" modified="2024-01-15T10:10:23.411Z" agent="Mozilla/5.0 (Windows NT 10.0; Win64; x64; rv:121.0) Gecko/20100101 Firefox/121.0" version="22.1.18" etag="oic-wjut7D4Yoliu_eDf" type="github">
  <diagram name="Pagina-1" id="YYO5B_iL8QXavFWU6pVA">
    <mxGraphModel>
      <root>
        <mxCell id="0" />
        <mxCell id="1" parent="0" />
      </root>
    </mxGraphModel>
  </diagram>
</mxfile>
